<?xml version="1.0" encoding="utf-8"?>
<!-- Generator: Adobe Illustrator 16.0.0, SVG Export Plug-In . SVG Version: 6.00 Build 0)  -->
<!DOCTYPE svg PUBLIC "-//W3C//DTD SVG 1.1//EN" "http://www.w3.org/Graphics/SVG/1.1/DTD/svg11.dtd">
<svg version="1.1" id="Layer_1" xmlns="http://www.w3.org/2000/svg" xmlns:xlink="http://www.w3.org/1999/xlink" x="0px" y="0px"
	 width="200px" height="200px" viewBox="0 0 200 200" enable-background="new 0 0 200 200" xml:space="preserve">
<g>
	<g>
		
			<circle fill="#FC7070" stroke="#303030" stroke-width="2" stroke-linecap="round" stroke-linejoin="round" stroke-miterlimit="10" cx="100" cy="100" r="90.722"/>
		
			<path fill="#FCA7A7" stroke="#303030" stroke-width="2" stroke-linecap="round" stroke-linejoin="round" stroke-miterlimit="10" d="
			M184.162,100c0,46.484-37.68,84.163-84.16,84.163c-46.483,0-84.163-37.679-84.163-84.163c0-46.482,37.68-84.162,84.163-84.162
			C146.482,15.837,184.162,53.517,184.162,100z"/>
	</g>
	<path fill="none" stroke="#303030" stroke-width="2" stroke-linecap="round" stroke-linejoin="round" stroke-miterlimit="10" d="
		M17.508,86.876l68.657-0.006c0,0,11.866,0.66,11.866-11.81c0-12.469,0-30.843,0-30.843s0-7.181,7.181-7.181
		c10.481,0,50.021,0,50.021,0"/>
	<path fill="none" stroke="#303030" stroke-width="2" stroke-linecap="round" stroke-linejoin="round" stroke-miterlimit="10" d="
		M161.35,42.386h-53.185c0,0-4.608-0.277-4.608,4.606v30.691c0,0,0.084,14.357-13.458,14.357c-12.304,0-73.49,0-73.49,0"/>
	<path fill="none" stroke="#303030" stroke-width="2" stroke-linecap="round" stroke-linejoin="round" stroke-miterlimit="10" d="
		M119.55,141.337c0,19.777,0,39.63,0,39.63"/>
	<path fill="none" stroke="#303030" stroke-width="2" stroke-linecap="round" stroke-linejoin="round" stroke-miterlimit="10" d="
		M15.839,97.208h95.918c0,0,7.792-0.819,7.792,7.792c0,1.492,0,4.809,0,9.27"/>
	
		<rect x="113.973" y="114.27" fill="#FC7070" stroke="#303030" stroke-width="2" stroke-linecap="round" stroke-linejoin="round" stroke-miterlimit="10" width="50.938" height="27.067"/>
	
		<line fill="none" stroke="#303030" stroke-width="2" stroke-linecap="round" stroke-linejoin="round" stroke-miterlimit="10" x1="124.557" y1="141.337" x2="124.557" y2="180.52"/>
	<path fill="none" stroke="#303030" stroke-width="2" stroke-linecap="round" stroke-linejoin="round" stroke-miterlimit="10" d="
		M124.557,114.27V78.833c0,0-0.055-5.414,5.411-5.414c6.397,0,49.531,0,49.531,0"/>
	<g>
		
			<polyline fill="none" stroke="#303030" stroke-width="2" stroke-linecap="round" stroke-linejoin="round" stroke-miterlimit="10" points="
			126.913,131.945 135.238,123.619 143.605,131.986 151.973,123.619 		"/>
		<circle fill="#F9F380" cx="143.525" cy="123.619" r="1.64"/>
		<circle fill="#F9F380" cx="135.339" cy="131.986" r="1.64"/>
	</g>
	<path fill="none" stroke="#303030" stroke-width="2" stroke-linecap="round" stroke-linejoin="round" stroke-miterlimit="10" d="
		M129.805,114.27V84.718c0,0-0.049-6.377,6.377-6.377c7.403,0,44.746,0,44.746,0"/>
	
		<line fill="none" stroke="#303030" stroke-width="2" stroke-linecap="round" stroke-linejoin="round" stroke-miterlimit="10" x1="129.756" y1="141.337" x2="129.756" y2="178.748"/>
	
		<path fill="#FC7070" stroke="#303030" stroke-width="2" stroke-linecap="round" stroke-linejoin="round" stroke-miterlimit="10" d="
		M59.144,173.576h18.245v-27.069H29.862C37.303,157.708,47.352,167.018,59.144,173.576z"/>
	<path fill="none" stroke="#303030" stroke-width="2" stroke-linecap="round" stroke-linejoin="round" stroke-miterlimit="10" d="
		M77.389,153.479c0,0,7.136,1.478,7.279-7.277c0.127-7.814-1.126-12.573,7.077-12.573c8.204,0,22.229,0,22.229,0"/>
	<path fill="none" stroke="#303030" stroke-width="2" stroke-linecap="round" stroke-linejoin="round" stroke-miterlimit="10" d="
		M77.389,166.768c0,0,8.613-1.146,8.613,5.743c0,6.398,0,10.486,0,10.486"/>
	
		<path fill="#FC7070" stroke="#303030" stroke-width="2" stroke-linecap="round" stroke-linejoin="round" stroke-miterlimit="10" d="
		M51.467,152.895c-4.354,0-7.886,3.528-7.886,7.888c0,0.631,0.094,1.233,0.232,1.821c2.403,2.156,4.924,4.18,7.561,6.051
		c0.033,0,0.062,0.014,0.092,0.014c4.355,0,7.886-3.534,7.886-7.886C59.354,156.423,55.822,152.895,51.467,152.895z"/>
	
		<circle fill="none" stroke="#F9F380" stroke-width="2" stroke-linecap="round" stroke-linejoin="round" stroke-miterlimit="10" cx="51.468" cy="160.78" r="3.81"/>
	
		<line fill="none" stroke="#303030" stroke-width="2" stroke-linecap="round" stroke-linejoin="round" stroke-miterlimit="10" x1="164.911" y1="133.626" x2="176.82" y2="133.626"/>
	<path fill="none" stroke="#303030" stroke-width="2" stroke-linecap="round" stroke-linejoin="round" stroke-miterlimit="10" d="
		M36.126,146.507v-12.386c0,0,0.039-5.251-5.085-5.251c-5.905,0-10.116,0-10.116,0"/>
	<path fill="none" stroke="#303030" stroke-width="2" stroke-linecap="round" stroke-linejoin="round" stroke-miterlimit="10" d="
		M31.474,146.507V137.4c0,0,0.062-3.537-3.538-3.537c-3.599,0-5.006,0-5.006,0"/>
	
		<path fill="#FC7070" stroke="#303030" stroke-width="2" stroke-linecap="round" stroke-linejoin="round" stroke-miterlimit="10" d="
		M21.582,69.451h37.764V27.155h-1.48C41.447,36.674,28.551,51.571,21.582,69.451z"/>
	<path fill="none" stroke="#303030" stroke-width="2" stroke-linecap="round" stroke-linejoin="round" stroke-miterlimit="10" d="
		M59.346,31.422h18.042c0,0,6.873,0.455,6.873-6.874c0-7.327,0-6.825,0-6.825"/>
	<path fill="none" stroke="#303030" stroke-width="2" stroke-linecap="round" stroke-linejoin="round" stroke-miterlimit="10" d="
		M59.346,26.456l14.188-0.161c0,0,4.714,0.534,4.714-4.716v-2.901"/>
	<g>
		
			<polyline fill="none" stroke="#303030" stroke-width="2" stroke-linecap="round" stroke-linejoin="round" stroke-miterlimit="10" points="
			35.591,45.821 40.288,50.518 48.655,42.151 		"/>
		<circle fill="#F9F380" cx="40.207" cy="42.151" r="1.64"/>
		<path fill="#F9F380" d="M32.021,52.158c0.906,0,1.64-0.734,1.64-1.64c0-0.554-0.294-1.021-0.715-1.319
			c-0.648,0.858-1.282,1.723-1.9,2.603C31.324,52.011,31.65,52.158,32.021,52.158z"/>
	</g>
	
		<line fill="none" stroke="#303030" stroke-width="2" stroke-linecap="round" stroke-linejoin="round" stroke-miterlimit="10" x1="40.208" y1="146.507" x2="40.208" y2="69.451"/>
	<path fill="none" stroke="#303030" stroke-width="2" stroke-linecap="round" stroke-linejoin="round" stroke-miterlimit="10" d="
		M59.346,61.957h5.327c0,0,3.021-0.35,3.021,3.914c0,4.268,0,80.636,0,80.636"/>
	<path fill="none" stroke="#303030" stroke-width="2" stroke-linecap="round" stroke-linejoin="round" stroke-miterlimit="10" d="
		M77.389,160.042h54.751c0,0,3.114,0.326,3.114-3.938c0-4.269,0-14.768,0-14.768"/>
	
		<line fill="none" stroke="#303030" stroke-width="2" stroke-linecap="round" stroke-linejoin="round" stroke-miterlimit="10" x1="135.256" y1="114.27" x2="135.256" y2="23.859"/>
	
		<line fill="none" stroke="#303030" stroke-width="2" stroke-linecap="round" stroke-linejoin="round" stroke-miterlimit="10" x1="44.823" y1="146.507" x2="44.823" y2="69.451"/>
	
		<path fill="#FC7070" stroke="#303030" stroke-width="2" stroke-linecap="round" stroke-linejoin="round" stroke-miterlimit="10" d="
		M166.48,48.422h-7.103v20.202h18.714C175.158,61.326,171.234,54.54,166.48,48.422z"/>
	
		<line fill="none" stroke="#303030" stroke-width="2" stroke-linecap="round" stroke-linejoin="round" stroke-miterlimit="10" x1="59.346" y1="56.358" x2="159.38" y2="56.358"/>
	<path fill="none" stroke="#F9F380" stroke-width="2" stroke-linecap="round" stroke-linejoin="round" stroke-miterlimit="10" d="
		M171.331,55.451c-0.513,0.912-0.829,1.95-0.829,3.073c0,3.345,2.607,6.052,5.895,6.275
		C174.904,61.564,173.207,58.448,171.331,55.451z"/>
	
		<line fill="none" stroke="#303030" stroke-width="2" stroke-linecap="round" stroke-linejoin="round" stroke-miterlimit="10" x1="140.795" y1="141.337" x2="140.795" y2="173.63"/>
	<path fill="none" stroke="#303030" stroke-width="2" stroke-linecap="round" stroke-linejoin="round" stroke-miterlimit="10" d="
		M140.795,114.27V65.563c0,0-0.062-4.695,4.799-4.695c5.783,0,13.786,0,13.786,0"/>
	<path fill="none" stroke="#303030" stroke-width="2" stroke-linecap="round" stroke-linejoin="round" stroke-miterlimit="10" d="
		M157.529,114.27v-8.541c0,0-0.164-5.729,6.562-5.729s20.069,0,20.069,0"/>
	
		<line fill="none" stroke="#303030" stroke-width="2" stroke-linecap="round" stroke-linejoin="round" stroke-miterlimit="10" x1="157.529" y1="141.337" x2="157.529" y2="160.779"/>
	
		<line fill="none" stroke="#303030" stroke-width="2" stroke-linecap="round" stroke-linejoin="round" stroke-miterlimit="10" x1="67.694" y1="173.576" x2="67.694" y2="177.732"/>
</g>
<path fill="none" stroke="#303030" stroke-width="2" stroke-linecap="round" stroke-linejoin="round" stroke-miterlimit="10" d="
	M184.162,100c0,46.484-37.68,84.163-84.16,84.163c-46.483,0-84.163-37.679-84.163-84.163c0-46.482,37.68-84.162,84.163-84.162
	C146.482,15.837,184.162,53.517,184.162,100z"/>
</svg>
